<svg width="30" height="30" viewBox="0 0 30 30" fill="none" xmlns="http://www.w3.org/2000/svg">
<path d="M15 30C6.71652 30 0 23.2835 0 15C0 6.71652 6.71652 0 15 0C23.2835 0 30 6.71652 30 15C30 23.2835 23.2835 30 15 30ZM15 2.54464C8.12277 2.54464 2.54464 8.12277 2.54464 15C2.54464 21.8772 8.12277 27.4554 15 27.4554C21.8772 27.4554 27.4554 21.8772 27.4554 15C27.4554 8.12277 21.8772 2.54464 15 2.54464Z" fill="#777777"/>
<path d="M20.8495 10.7611L16.0749 14.2131V22.5C16.0749 22.6473 15.9544 22.7678 15.8071 22.7678H14.1966C14.0492 22.7678 13.9287 22.6473 13.9287 22.5V13.279C13.9287 13.1919 13.9689 13.1116 14.0392 13.0613L19.5771 9.0234C19.6977 8.93635 19.8651 8.96314 19.9521 9.08032L20.9097 10.3861C20.9968 10.51 20.97 10.6774 20.8495 10.7611Z" fill="#777777"/>
</svg>
