<svg width="29" height="19" viewBox="0 0 29 19" fill="none" xmlns="http://www.w3.org/2000/svg">
<g clip-path="url(#clip0_128_1063)">
<path fill-rule="evenodd" clip-rule="evenodd" d="M27.9648 2.96691C27.6364 1.79902 26.6685 0.879363 25.4396 0.567242C23.2124 0 14.2809 0 14.2809 0C14.2809 0 5.34932 0 3.12199 0.567242C1.89303 0.879363 0.925173 1.79902 0.596713 2.96691C0 5.08357 0 9.5 0 9.5C0 9.5 0 13.9163 0.596713 16.0331C0.925173 17.201 1.89303 18.1206 3.12199 18.4329C5.34932 19 14.2809 19 14.2809 19C14.2809 19 23.2124 19 25.4396 18.4329C26.6685 18.1206 27.6364 17.201 27.9648 16.0331C28.5617 13.9163 28.5617 9.5 28.5617 9.5C28.5617 9.5 28.5617 5.08357 27.9648 2.96691Z" fill="#121212"/>
<path fill-rule="evenodd" clip-rule="evenodd" d="M11.6035 14.0436V5.78271L18.7439 9.91331L11.6035 14.0436Z" fill="white"/>
</g>
<defs>
<clipPath id="clip0_128_1063">
<rect width="28.5617" height="19" fill="white"/>
</clipPath>
</defs>
</svg>
