<svg width="17" height="22" viewBox="0 0 17 22" fill="none" xmlns="http://www.w3.org/2000/svg">
<path d="M8.10345 4.14368C6.97797 4.14368 6.02131 4.5376 5.23348 5.32543C4.44564 6.11327 4.05172 7.06992 4.05172 8.1954C4.05172 9.32088 4.44564 10.2775 5.23348 11.0654C6.02131 11.8532 6.97797 12.2471 8.10345 12.2471C9.22893 12.2471 10.1856 11.8532 10.9734 11.0654C11.7613 10.2775 12.1552 9.32088 12.1552 8.1954C12.1552 7.06992 11.7613 6.11327 10.9734 5.32543C10.1856 4.5376 9.22893 4.14368 8.10345 4.14368ZM8.10345 10.8966C7.37189 10.8966 6.73881 10.6293 6.2042 10.0946C5.6696 9.56005 5.4023 8.92696 5.4023 8.1954C5.4023 7.46384 5.6696 6.83076 6.2042 6.29616C6.73881 5.76155 7.37189 5.49425 8.10345 5.49425C8.83501 5.49425 9.46809 5.76155 10.0027 6.29616C10.5373 6.83076 10.8046 7.46384 10.8046 8.1954C10.8046 8.92696 10.5373 9.56005 10.0027 10.0946C9.46809 10.6293 8.83501 10.8966 8.10345 10.8966ZM8.10345 0.0919538C6.64033 0.0919538 5.28975 0.457734 4.05172 1.1893C2.8137 1.92086 1.8289 2.90565 1.09734 4.14368C0.365781 5.3817 0 6.73228 0 8.1954C0 9.09579 0.112548 9.89769 0.337644 10.6011C0.562739 11.2764 0.998863 12.1205 1.64601 13.1334C2.0962 13.8369 3.02472 15.2015 4.43157 17.2274L7.25934 21.2791C7.4563 21.5605 7.73767 21.7011 8.10345 21.7011C8.46923 21.7011 8.7506 21.5605 8.94756 21.2791L11.7753 17.2274C13.1822 15.2015 14.1107 13.8369 14.5609 13.1334C15.208 12.1205 15.6442 11.2764 15.8693 10.6011C16.0943 9.89769 16.2069 9.09579 16.2069 8.1954C16.2069 6.73228 15.8411 5.3817 15.1096 4.14368C14.378 2.90565 13.3932 1.92086 12.1552 1.1893C10.9171 0.457734 9.56657 0.0919538 8.10345 0.0919538ZM8.10345 20.0973C7.42816 19.1125 6.55591 17.8605 5.48671 16.3411C4.13614 14.3996 3.24982 13.1194 2.82777 12.5004C2.23689 11.5437 1.84297 10.784 1.64601 10.2213C1.44905 9.63039 1.35057 8.9551 1.35057 8.1954C1.35057 7.29502 1.5194 6.43684 1.85704 5.62087C2.19468 4.8049 2.68708 4.07334 3.33423 3.42619C3.98138 2.77903 4.71294 2.28664 5.52892 1.94899C6.34489 1.61135 7.20307 1.44253 8.10345 1.44253C9.00383 1.44253 9.86201 1.61135 10.678 1.94899C11.494 2.28664 12.2255 2.77903 12.8727 3.42619C13.5198 4.07334 14.0122 4.8049 14.3499 5.62087C14.6875 6.43684 14.8563 7.29502 14.8563 8.1954C14.8563 8.9551 14.7578 9.63039 14.5609 10.2213C14.3639 10.784 13.97 11.5437 13.3791 12.5004C12.9571 13.1194 12.0708 14.3996 10.7202 16.3411L8.10345 20.0973Z" fill="#121212"/>
</svg>
