<svg width="21" height="21" viewBox="0 0 21 21" fill="none" xmlns="http://www.w3.org/2000/svg">
<path d="M19.1719 20.0625L20.0703 16.1172C20.1484 15.8307 20.1094 15.5573 19.9531 15.2969C19.8229 15.0365 19.6276 14.8411 19.3672 14.7109L15.1484 12.9141C14.888 12.8099 14.6276 12.7839 14.3672 12.8359C14.1068 12.9141 13.8854 13.0573 13.7031 13.2656L11.9844 15.375C10.6302 14.6979 9.41927 13.8255 8.35156 12.7578C7.28385 11.6901 6.41146 10.4792 5.73438 9.125L7.84375 7.40625C8.05208 7.22396 8.18229 7.0026 8.23438 6.74219C8.3125 6.48177 8.29948 6.22135 8.19531 5.96094L6.39844 1.74219C6.26823 1.48177 6.07292 1.27344 5.8125 1.11719C5.55208 0.986979 5.27865 0.960937 4.99219 1.03906L1.04688 1.9375C0.786458 2.01562 0.565104 2.15885 0.382812 2.36719C0.200521 2.60156 0.109375 2.86198 0.109375 3.14844C0.109375 6.3776 0.916667 9.3724 2.53125 12.1328C4.11979 14.8411 6.25521 16.9766 8.9375 18.5391C11.724 20.1797 14.7448 21 18 21C18.2604 21 18.4948 20.9089 18.7031 20.7266C18.9375 20.5443 19.0938 20.3229 19.1719 20.0625ZM1.35938 3.14844L5.26562 2.25L7.0625 6.46875L4.21094 8.77344C5.14844 10.8047 6.22917 12.4323 7.45312 13.6562C8.67708 14.8802 10.3047 15.9609 12.3359 16.8984L14.6406 14.0469L18.8594 15.8438L17.9609 19.75C14.9661 19.75 12.1797 18.9948 9.60156 17.4844C7.07552 16 5.08333 14.0078 3.625 11.5078C2.11458 8.92969 1.35938 6.14323 1.35938 3.14844Z" fill="#121212"/>
</svg>
