<svg width="22" height="19" viewBox="0 0 22 19" fill="none" xmlns="http://www.w3.org/2000/svg">
<path fill-rule="evenodd" clip-rule="evenodd" d="M10.8267 0C8.03911 0 7.68927 0.0112813 6.59441 0.0573958C5.50168 0.103708 4.7558 0.263823 4.10316 0.49875C3.42806 0.741396 2.8554 1.06598 2.28487 1.59422C1.71391 2.12226 1.36321 2.65228 1.10019 3.27691C0.845718 3.88115 0.672507 4.57168 0.623323 5.58264C0.574354 6.59597 0.561523 6.91996 0.561523 9.5C0.561523 12.08 0.573926 12.4028 0.623537 13.4162C0.67379 14.4275 0.846787 15.1179 1.1004 15.7219C1.36279 16.3467 1.71348 16.8768 2.28423 17.4048C2.85454 17.9332 3.42721 18.2586 4.10187 18.5013C4.75494 18.7362 5.50104 18.8963 6.59355 18.9426C7.68842 18.9887 8.03805 19 10.8255 19C13.6133 19 13.9621 18.9887 15.0569 18.9426C16.1497 18.8963 16.8964 18.7362 17.5495 18.5013C18.2244 18.2586 18.7962 17.9332 19.3665 17.4048C19.9374 16.8768 20.2881 16.3467 20.5512 15.7221C20.8035 15.1179 20.9767 14.4273 21.028 13.4164C21.0772 12.403 21.09 12.08 21.09 9.5C21.09 6.91996 21.0772 6.59617 21.028 5.58283C20.9767 4.57148 20.8035 3.88115 20.5512 3.2771C20.2881 2.65228 19.9374 2.12226 19.3665 1.59422C18.7955 1.06578 18.2246 0.741198 17.5488 0.49875C16.8945 0.263823 16.1482 0.103708 15.0555 0.0573958C13.9606 0.0112813 13.612 0 10.8235 0H10.8267ZM9.90671 1.71224C10.18 1.71185 10.4849 1.71224 10.8275 1.71224C13.5681 1.71224 13.8929 1.72135 14.9752 1.76687C15.9759 1.80922 16.5191 1.96399 16.8809 2.09402C17.3599 2.26621 17.7014 2.47204 18.0605 2.80454C18.4197 3.13704 18.6421 3.45371 18.8286 3.89704C18.9691 4.23152 19.1365 4.73423 19.1821 5.66048C19.2312 6.66194 19.2419 6.96277 19.2419 9.49809C19.2419 12.0334 19.2312 12.3342 19.1821 13.3357C19.1363 14.2619 18.9691 14.7646 18.8286 15.0991C18.6425 15.5425 18.4197 15.8581 18.0605 16.1904C17.7012 16.5229 17.3601 16.7288 16.8809 16.901C16.5195 17.0316 15.9759 17.186 14.9752 17.2283C13.8931 17.2738 13.5681 17.2837 10.8275 17.2837C8.08671 17.2837 7.76189 17.2738 6.67985 17.2283C5.67908 17.1856 5.13592 17.0308 4.77389 16.9008C4.29488 16.7286 3.95274 16.5227 3.59348 16.1902C3.23423 15.8577 3.01184 15.5419 2.82537 15.0983C2.68487 14.7639 2.51744 14.2611 2.47189 13.3349C2.42271 12.3334 2.41287 12.0326 2.41287 9.49571C2.41287 6.95881 2.42271 6.65956 2.47189 5.65811C2.51765 4.73186 2.68487 4.22915 2.82537 3.89427C3.01141 3.45094 3.23423 3.13427 3.59348 2.80177C3.95274 2.46927 4.29488 2.26344 4.77389 2.09086C5.13571 1.96023 5.67908 1.80586 6.67985 1.7633C7.62674 1.72372 7.99369 1.71185 9.90671 1.70987V1.71224ZM16.3061 3.28947C15.6261 3.28947 15.0744 3.7995 15.0744 4.42908C15.0744 5.05845 15.6261 5.56908 16.3061 5.56908C16.9861 5.56908 17.5378 5.05845 17.5378 4.42908C17.5378 3.7997 16.9861 3.28908 16.3061 3.28908V3.28947ZM10.827 4.62115C7.91599 4.62115 5.55583 6.80555 5.55583 9.49979C5.55583 12.194 7.91599 14.3775 10.827 14.3775C13.738 14.3775 16.0973 12.194 16.0973 9.49979C16.0973 6.80555 13.7378 4.62115 10.8268 4.62115H10.827ZM10.8266 6.33308C12.7161 6.33308 14.248 7.75075 14.248 9.49974C14.248 11.2485 12.7161 12.6664 10.8266 12.6664C8.93685 12.6664 7.40511 11.2485 7.40511 9.49974C7.40511 7.75075 8.93685 6.33308 10.8266 6.33308Z" fill="#121212"/>
</svg>
