<svg width="26" height="19" viewBox="0 0 26 19" fill="none" xmlns="http://www.w3.org/2000/svg">
<g clip-path="url(#clip0_128_1061)">
<path fill-rule="evenodd" clip-rule="evenodd" d="M12.7309 5.0543L12.7847 5.8761L11.8872 5.77547C8.62048 5.38973 5.76654 4.08155 3.34339 1.88448L2.15874 0.794336L1.8536 1.59937C1.20742 3.39392 1.62026 5.2891 2.96645 6.56373C3.68442 7.26814 3.52288 7.36876 2.28438 6.94948C1.8536 6.81531 1.47666 6.71468 1.44076 6.76499C1.31512 6.88239 1.7459 8.4086 2.08694 9.01237C2.55362 9.85095 3.50493 10.6728 4.54599 11.1591L5.42551 11.5449L4.38445 11.5616C3.37929 11.5616 3.34339 11.5784 3.45108 11.9306C3.81007 13.0208 5.22806 14.178 6.8076 14.6811L7.92046 15.0333L6.95119 15.57C5.51525 16.3415 3.82802 16.7776 2.14079 16.8111C1.33307 16.8279 0.668945 16.895 0.668945 16.9453C0.668945 17.113 2.85876 18.0522 4.13316 18.4212C7.95635 19.5113 12.4975 19.0417 15.9079 17.1801C18.331 15.8551 20.7542 13.222 21.885 10.6728C22.4953 9.31426 23.1055 6.83208 23.1055 5.6413C23.1055 4.86981 23.1594 4.76918 24.1646 3.84675C24.7569 3.31006 25.3133 2.72306 25.421 2.55534C25.6005 2.23669 25.5826 2.23669 24.6671 2.5218C23.1414 3.02495 22.9261 2.95786 23.6799 2.20314C24.2364 1.66645 24.9005 0.693707 24.9005 0.408592C24.9005 0.358277 24.6312 0.442135 24.3261 0.593078C24.003 0.760793 23.285 1.01237 22.7466 1.16331L21.7773 1.44842L20.8978 0.894965C20.4132 0.593078 19.7311 0.257648 19.3721 0.157019C18.4567 -0.077782 17.0566 -0.044239 16.231 0.224105C13.9873 0.978823 12.5693 2.92432 12.7309 5.0543Z" fill="#121212"/>
</g>
<defs>
<clipPath id="clip0_128_1061">
<rect width="24.8414" height="19" fill="white" transform="translate(0.668945)"/>
</clipPath>
</defs>
</svg>
