<svg width="22" height="17" viewBox="0 0 22 17" fill="none" xmlns="http://www.w3.org/2000/svg">
<path d="M19.5833 0.793103L2.02586 0.793103C1.46312 0.793103 0.984794 0.990062 0.590876 1.38398C0.196959 1.7779 0 2.25623 0 2.81897L0 14.9741C0 15.5369 0.196959 16.0152 0.590876 16.4091C0.984794 16.803 1.46312 17 2.02586 17H19.5833C20.1461 17 20.6244 16.803 21.0183 16.4091C21.4122 16.0152 21.6092 15.5369 21.6092 14.9741V2.81897C21.6092 2.25623 21.4122 1.7779 21.0183 1.38398C20.6244 0.990062 20.1461 0.793103 19.5833 0.793103ZM2.02586 2.14368L19.5833 2.14368C19.7803 2.14368 19.935 2.21402 20.0476 2.35471C20.1883 2.46725 20.2586 2.62201 20.2586 2.81897V4.54939C19.2738 5.3935 17.1495 7.10985 13.8856 9.69846L13.4635 10.0361C12.9008 10.5144 12.4647 10.8521 12.1552 11.049C11.6206 11.4148 11.1704 11.5977 10.8046 11.5977C10.4388 11.5977 9.98863 11.4148 9.45402 11.049C9.11638 10.8521 8.66619 10.5144 8.10345 10.0361L7.7236 9.69846C4.45971 7.10985 2.33537 5.3935 1.35057 4.54939L1.35057 2.81897C1.35057 2.62201 1.40685 2.46725 1.5194 2.35471C1.66008 2.21402 1.8289 2.14368 2.02586 2.14368ZM19.5833 15.6494H2.02586C1.8289 15.6494 1.66008 15.5932 1.5194 15.4806C1.40685 15.3399 1.35057 15.1711 1.35057 14.9741L1.35057 6.32202C2.33537 7.10985 4.17834 8.58704 6.87949 10.7536L7.30154 11.0912C7.9487 11.654 8.4833 12.062 8.90535 12.3152C9.60878 12.7372 10.2419 12.9483 10.8046 12.9483C11.3673 12.9483 12.0004 12.7372 12.7038 12.3152C13.0978 12.062 13.6324 11.654 14.3077 11.0912L14.7297 10.7536C17.4309 8.58704 19.2738 7.10985 20.2586 6.32202V14.9741C20.2586 15.1711 20.1883 15.3399 20.0476 15.4806C19.935 15.5932 19.7803 15.6494 19.5833 15.6494Z" fill="#121212"/>
</svg>
