<svg width="74" height="72" viewBox="0 0 74 72" fill="none" xmlns="http://www.w3.org/2000/svg">
<rect width="74" height="72" rx="4" fill="#ECC4C4"/>
<g clip-path="url(#clip0_13_431)">
<path d="M41.3682 45.342H44.5047V48.4785H41.3682V45.342ZM52.2102 45.342H55.3467V48.4785H52.2102V45.342ZM49.5792 34.218V31.083H45.2322V32.61L46.8537 34.2195L49.5792 34.218Z" fill="#8A0000"/>
<path d="M60.3278 51.168V44.5545H61.3253L62.2523 43.638L51.2693 32.655H49.9058V34.5585H46.7108L44.8073 32.655H39.5333L28.5623 43.626L29.4893 44.553H30.9578V51.1665H28.0913C23.8043 47.0655 22.6643 37.764 23.0648 30.8445L23.1353 30.7035H23.1698C25.0448 30.7035 26.7068 31.6125 27.7418 33.0135L27.7523 33.0285C28.5323 34.083 29.0018 35.4105 29.0018 36.846C29.0018 37.836 28.7798 38.7735 28.3808 39.612L28.3973 39.573C29.2344 39.3586 30.0126 38.9588 30.6743 38.403L30.6653 38.4105C31.3543 37.8108 31.9064 37.0702 32.2845 36.2388C32.6626 35.4073 32.8577 34.5044 32.8568 33.591C32.8568 32.1585 32.3858 30.837 31.5908 29.772L31.6028 29.7885C30.9207 28.8373 29.956 28.1253 28.846 27.754C27.7359 27.3826 26.537 27.3707 25.4198 27.72L25.4588 27.7095C25.8563 27.462 26.3138 27.243 26.7953 27.0765L26.8433 27.0615C27.4977 26.8198 28.1902 26.6973 28.8878 26.7C30.5123 26.7 31.9838 27.3495 33.0593 28.401L33.0578 28.3995C33.2172 27.5582 33.1693 26.6907 32.9183 25.872L32.9288 25.9095C32.6801 25.1799 32.2855 24.5086 31.7689 23.9365C31.2524 23.3643 30.6248 22.9033 29.9244 22.5815C29.224 22.2597 28.4654 22.0839 27.6948 22.0647C26.9243 22.0455 26.1579 22.1834 25.4423 22.47L25.4798 22.4565C25.1179 22.5813 24.7659 22.7332 24.4268 22.911L24.4703 22.89C24.3682 22.4209 24.2168 21.9639 24.0188 21.5265L24.0368 21.57C22.7168 18.6105 19.6898 17.2125 17.2703 18.435C16.6169 18.769 16.0555 19.2583 15.6353 19.86L15.6263 19.875C16.4779 19.9586 17.2981 20.2398 18.0218 20.6963C18.7455 21.1528 19.3526 21.772 19.7948 22.5045L19.8083 22.5285C19.247 22.2475 18.653 22.0374 18.0398 21.903L17.9888 21.894C14.2688 21.0945 10.7288 23.115 10.0943 26.4165C9.92478 27.3222 9.98093 28.2557 10.2578 29.1345L10.2473 29.0955C11.0791 28.1511 12.1557 27.455 13.3583 27.0839C14.5608 26.7128 15.8425 26.6811 17.0618 26.9925L17.0138 26.982C17.6273 27.111 18.1703 27.297 18.6788 27.5415L18.6353 27.522C17.4183 27.3599 16.1807 27.5644 15.0806 28.1095C13.9805 28.6546 13.068 29.5155 12.4598 30.582L12.4433 30.612C11.8083 31.6817 11.475 32.9035 11.4788 34.1475C11.4788 36.4995 12.6443 38.5785 14.4308 39.8385L14.4533 39.8535C15.222 40.3696 16.0991 40.7022 17.0168 40.8255L17.0483 40.8285C16.3865 39.7319 16.0384 38.4748 16.0418 37.194C16.0418 35.8845 16.3973 34.6575 17.0183 33.606L17.0003 33.639C17.4617 32.836 18.0942 32.1444 18.853 31.6134C19.6119 31.0825 20.4783 30.7252 21.3908 30.567L21.4283 30.561C19.3028 40.2405 18.7148 46.9845 20.4683 51.165H15.3593V53.985H63.5813V51.165H60.3278V51.168ZM48.4028 44.7075H59.1518V51.168H48.4028V44.7075ZM32.1113 43.4265L39.5363 36.0015L46.9613 43.4265V51.168H38.8088V45.342H34.6853V51.168H32.1023V43.4265H32.1113Z" fill="#8A0000"/>
</g>
<defs>
<clipPath id="clip0_13_431">
<rect width="54" height="36" fill="white" transform="translate(10 18)"/>
</clipPath>
</defs>
</svg>
