<svg width="74" height="72" viewBox="0 0 74 72" fill="none" xmlns="http://www.w3.org/2000/svg">
<rect width="74" height="72" rx="4" fill="#CAFFDA"/>
<path d="M44.3335 17.6667C39.2735 17.6667 35.1668 21.7733 35.1668 26.8333C35.1668 31.8933 39.2735 36 44.3335 36C49.3935 36 53.5002 31.8933 53.5002 26.8333C53.5002 21.7733 49.3935 17.6667 44.3335 17.6667ZM44.3335 32.3333C41.2902 32.3333 38.8335 29.8767 38.8335 26.8333C38.8335 23.79 41.2902 21.3333 44.3335 21.3333C47.3768 21.3333 49.8335 23.79 49.8335 26.8333C49.8335 29.8767 47.3768 32.3333 44.3335 32.3333ZM49.8335 43.3333H46.1668C46.1668 41.1333 44.7918 39.1533 42.7385 38.3833L31.4452 34.1667H16.8335V54.3333H27.8335V51.6933L40.6668 55.25L55.3335 50.6667V48.8333C55.3335 45.79 52.8768 43.3333 49.8335 43.3333ZM24.1668 50.6667H20.5002V37.8333H24.1668V50.6667ZM40.6118 51.4183L27.8335 47.9167V37.8333H30.7852L41.4552 41.8117C42.0785 42.05 42.5002 42.655 42.5002 43.3333C42.5002 43.3333 38.8335 43.2417 38.2835 43.0583L33.9202 41.61L32.7652 45.0933L37.1285 46.5417C38.0635 46.8533 39.0352 47 40.0252 47H49.8335C50.5485 47 51.1902 47.44 51.4835 48.045L40.6118 51.4183Z" fill="#00893B"/>
</svg>
