<svg width="74" height="72" viewBox="0 0 74 72" fill="none" xmlns="http://www.w3.org/2000/svg">
<rect width="74" height="72" rx="4" fill="#FFDBDB"/>
<path d="M24.0244 36.9726V54.4861H50.0244V36.9726L37.0244 24.3239L24.0244 36.9726Z" stroke="#FF0000" stroke-width="4" stroke-linejoin="round"/>
<path d="M16.6106 32.6779C16.4196 32.8574 16.2672 33.0721 16.1624 33.3095C16.0576 33.5469 16.0024 33.8023 16.0001 34.0607C15.9978 34.319 16.0484 34.5753 16.1489 34.8144C16.2495 35.0536 16.398 35.2709 16.5858 35.4536C16.7736 35.6363 16.9969 35.7808 17.2427 35.8786C17.4885 35.9765 17.7518 36.0257 18.0174 36.0234C18.2829 36.0212 18.5454 35.9675 18.7894 35.8655C19.0334 35.7635 19.2541 35.6153 19.4386 35.4294L16.6106 32.6779ZM37.0246 15.5672L38.4386 14.1914C38.0635 13.8266 37.5549 13.6216 37.0246 13.6216C36.4942 13.6216 35.9856 13.8266 35.6106 14.1914L37.0246 15.5672ZM54.6106 35.4294C54.7951 35.6153 55.0158 35.7635 55.2598 35.8655C55.5038 35.9675 55.7662 36.0212 56.0318 36.0234C56.2973 36.0257 56.5607 35.9765 56.8065 35.8786C57.0523 35.7808 57.2756 35.6363 57.4634 35.4536C57.6512 35.2709 57.7997 35.0536 57.9002 34.8144C58.0008 34.5753 58.0514 34.319 58.0491 34.0607C58.0468 33.8023 57.9916 33.5469 57.8868 33.3095C57.782 33.0721 57.6296 32.8574 57.4386 32.6779L54.6106 35.4294ZM19.4386 35.4294L38.4386 16.943L35.6106 14.1914L16.6106 32.6779L19.4386 35.4294ZM35.6106 16.943L54.6106 35.4294L57.4386 32.6779L38.4386 14.1914L35.6106 16.943Z" fill="#FF0000"/>
<path d="M32.0244 41.8374H42.0244M37.0244 36.9725V46.7023" stroke="#FF0000" stroke-width="4" stroke-linecap="round" stroke-linejoin="round"/>
</svg>
