<svg width="74" height="72" viewBox="0 0 74 72" fill="none" xmlns="http://www.w3.org/2000/svg">
<rect width="74" height="72" rx="4" fill="#DADADA"/>
<path d="M45.3332 52C45.8855 52 46.3332 51.5523 46.3332 51C46.3332 50.4477 45.8855 50 45.3332 50H36.9998H28.6665C28.1142 50 27.6665 50.4477 27.6665 51C27.6665 51.5523 28.1142 52 28.6665 52H36.9998H45.3332Z" stroke="black" stroke-width="2" stroke-linecap="round" stroke-linejoin="round"/>
<path d="M36 51C36 51.5523 36.4477 52 37 52C37.5523 52 38 51.5523 38 51V44.3333C38 43.781 37.5523 43.3333 37 43.3333C36.4477 43.3333 36 43.781 36 44.3333V51Z" stroke="black" stroke-width="2" stroke-linecap="round" stroke-linejoin="round"/>
<path d="M20.5 42.3333C20.5 43.1617 21.1716 43.8333 22 43.8333H37H52C52.8284 43.8333 53.5 43.1617 53.5 42.3333V22.3333C53.5 21.5049 52.8284 20.8333 52 20.8333H22C21.1716 20.8333 20.5 21.5049 20.5 22.3333V42.3333Z" stroke="black" stroke-width="3" stroke-linecap="round" stroke-linejoin="round"/>
</svg>
