<svg width="74" height="72" viewBox="0 0 74 72" fill="none" xmlns="http://www.w3.org/2000/svg">
<rect width="74" height="72" rx="4" fill="#E1F2F3"/>
<path d="M25.3332 23H55.3332V43H25.3332V23ZM40.3332 28C41.6593 28 42.931 28.5268 43.8687 29.4645C44.8064 30.4021 45.3332 31.6739 45.3332 33C45.3332 34.3261 44.8064 35.5979 43.8687 36.5355C42.931 37.4732 41.6593 38 40.3332 38C39.0071 38 37.7353 37.4732 36.7976 36.5355C35.86 35.5979 35.3332 34.3261 35.3332 33C35.3332 31.6739 35.86 30.4021 36.7976 29.4645C37.7353 28.5268 39.0071 28 40.3332 28ZM31.9998 26.3333C31.9998 27.2174 31.6486 28.0652 31.0235 28.6904C30.3984 29.3155 29.5506 29.6667 28.6665 29.6667V36.3333C29.5506 36.3333 30.3984 36.6845 31.0235 37.3096C31.6486 37.9348 31.9998 38.7826 31.9998 39.6667H48.6665C48.6665 38.7826 49.0177 37.9348 49.6428 37.3096C50.2679 36.6845 51.1158 36.3333 51.9998 36.3333V29.6667C51.1158 29.6667 50.2679 29.3155 49.6428 28.6904C49.0177 28.0652 48.6665 27.2174 48.6665 26.3333H31.9998ZM18.6665 29.6667H21.9998V46.3333H48.6665V49.6667H18.6665V29.6667Z" fill="#0091A4"/>
</svg>
