<svg width="74" height="72" viewBox="0 0 74 72" fill="none" xmlns="http://www.w3.org/2000/svg">
<rect width="74" height="72" rx="4" fill="#F6D4FF"/>
<path d="M49.5 54H50V53.5V49.75V49.7494C49.9972 47.2972 49.0218 44.9462 47.2878 43.2122C45.5538 41.4782 43.2028 40.5028 40.7506 40.5H40.75H33.25H33.2494C30.7972 40.5028 28.4462 41.4782 26.7122 43.2122C24.9782 44.9462 24.0028 47.2972 24 49.7494V49.75V53.5V54H24.5H27H27.5V53.5L27.5 49.7506C27.5 49.7505 27.5 49.7503 27.5 49.7502C27.5019 48.2258 28.1084 46.7643 29.1863 45.6863C30.2644 44.6083 31.726 44.0018 33.2506 44H40.7494C42.274 44.0018 43.7356 44.6083 44.8137 45.6863C45.8917 46.7644 46.4982 48.226 46.5 49.7506V53.5V54H47H49.5ZM21.5 36V36.5H22H24.5H25V36V24.75C25 24.2859 24.8156 23.8408 24.4874 23.5126C24.1592 23.1844 23.7141 23 23.25 23C22.7859 23 22.3408 23.1844 22.0126 23.5126L22.3661 23.8661L22.0126 23.5126C21.6844 23.8408 21.5 24.2859 21.5 24.75V36Z" fill="#B000DC" stroke="#B000DC"/>
<path d="M22 18H21.5V18.5V21V21.5H22H27.75V29.75C27.75 32.2033 28.7246 34.556 30.4593 36.2907C32.194 38.0254 34.5467 39 37 39C39.4533 39 41.806 38.0254 43.5407 36.2907C45.2754 34.556 46.25 32.2033 46.25 29.75V21.5H52H52.5V21V18.5V18H52H22ZM31.25 21.5H42.75V24.25H31.25V21.5ZM37 35.5C35.475 35.5 34.0125 34.8942 32.9341 33.8159C31.8558 32.7375 31.25 31.275 31.25 29.75V27.75H42.75V29.75C42.75 31.275 42.1442 32.7375 41.0659 33.8159C39.9875 34.8942 38.525 35.5 37 35.5Z" fill="#B000DC" stroke="#B000DC"/>
</svg>
