<svg width="74" height="72" viewBox="0 0 74 72" fill="none" xmlns="http://www.w3.org/2000/svg">
<rect width="74" height="72" rx="4" fill="#FFE8CD"/>
<g clip-path="url(#clip0_13_419)">
<path d="M17 15.5H16.5V16V56V56.5H17H57H57.5V56V53.5V53H57H20V16V15.5H19.5H17ZM41.8704 35.8957L35.7386 29.7615L35.7384 29.7613C35.5594 29.5825 35.3438 29.4446 35.1065 29.3572C34.8691 29.2698 34.6156 29.2348 34.3635 29.2548C34.1113 29.2747 33.8665 29.3491 33.6458 29.4728C33.4252 29.5965 33.234 29.7666 33.0854 29.9713L23.0856 43.7209L23.0802 43.7284L23.075 43.7361C22.8224 44.1119 22.7253 44.571 22.8042 45.0169C22.883 45.4628 23.1316 45.8608 23.4977 46.1273C23.8639 46.3937 24.319 46.5079 24.7676 46.4457C25.2161 46.3836 25.6231 46.15 25.903 45.7941L25.9088 45.7867L25.9144 45.7791L34.7102 33.6848L40.7639 39.7386L40.7643 39.7389C40.9371 39.9114 41.1442 40.0459 41.3722 40.1336C41.6002 40.2213 41.844 40.2603 42.088 40.2481C42.3319 40.2359 42.5706 40.1728 42.7887 40.0628C43.0068 39.9528 43.1995 39.7983 43.3543 39.6094L43.3545 39.6091L51.5 29.651V34.75C51.5 35.2141 51.6844 35.6592 52.0126 35.9874C52.3408 36.3156 52.7859 36.5 53.25 36.5C53.7141 36.5 54.1592 36.3156 54.4874 35.9874C54.8156 35.6592 55 35.2141 55 34.75V24.75C55 24.2859 54.8156 23.8408 54.4874 23.5126C54.1592 23.1844 53.7141 23 53.25 23H43.25C42.7859 23 42.3408 23.1844 42.0126 23.5126C41.6844 23.8408 41.5 24.2859 41.5 24.75C41.5 25.2141 41.6844 25.6592 42.0126 25.9874C42.3408 26.3156 42.7859 26.5 43.25 26.5H49.5574L41.8704 35.8957Z" fill="#FF8A00" stroke="#FF8A00"/>
</g>
<defs>
<clipPath id="clip0_13_419">
<rect width="40" height="40" fill="white" transform="translate(17 16)"/>
</clipPath>
</defs>
</svg>
