<svg width="34" height="30" viewBox="0 0 34 30" fill="none" xmlns="http://www.w3.org/2000/svg">
<path d="M30 6.66667H23.3333V3.33333L20 0H13.3333L10 3.33333V6.66667H3.33333C1.5 6.66667 0 8.16667 0 10V18.3333C0 19.5833 0.666667 20.6333 1.66667 21.2167V26.6667C1.66667 28.5167 3.15 30 5 30H28.3333C30.1833 30 31.6667 28.5167 31.6667 26.6667V21.2C32.65 20.6167 33.3333 19.55 33.3333 18.3333V10C33.3333 8.16667 31.8333 6.66667 30 6.66667ZM13.3333 3.33333H20V6.66667H13.3333V3.33333ZM3.33333 10H30V18.3333H21.6667V13.3333H11.6667V18.3333H3.33333V10ZM18.3333 20H15V16.6667H18.3333V20ZM28.3333 26.6667H5V21.6667H11.6667V23.3333H21.6667V21.6667H28.3333V26.6667Z" fill="#777777"/>
</svg>
