<svg width="74" height="72" viewBox="0 0 74 72" fill="none" xmlns="http://www.w3.org/2000/svg">
<rect width="74" height="72" rx="4" fill="#CEE3FF"/>
<path d="M38.6665 40.25C35.9721 40.25 33.9998 40.4027 32.7498 40.7083C31.4998 41.0139 30.4304 41.6111 29.5415 42.5L23.8748 48.1666C23.5693 48.4722 23.1871 48.625 22.7282 48.625C22.2693 48.625 21.8737 48.4722 21.5415 48.1666C21.2082 47.8333 21.0415 47.4372 21.0415 46.9783C21.0415 46.5194 21.2082 46.1239 21.5415 45.7916L27.1665 40.1666C28.0276 39.3055 28.6182 38.2294 28.9382 36.9383C29.2582 35.6472 29.4176 33.6677 29.4165 31C29.4165 29.3889 29.7776 27.8055 30.4998 26.25C31.2221 24.6944 32.2498 23.25 33.5832 21.9166C36.1109 19.3889 38.9026 17.9583 41.9582 17.625C45.0137 17.2916 47.5276 18.1389 49.4998 20.1666C51.4998 22.1666 52.3332 24.6944 51.9998 27.75C51.6665 30.8055 50.2498 33.5833 47.7498 36.0833C46.4165 37.4166 44.9721 38.4444 43.4165 39.1666C41.8609 39.8889 40.2776 40.25 38.6665 40.25ZM34.1665 35.4166C35.4721 36.6944 37.2359 37.1666 39.4582 36.8333C41.6804 36.5 43.6665 35.4583 45.4165 33.7083C47.1943 31.9305 48.2571 29.9372 48.6048 27.7283C48.9526 25.5194 48.4732 23.7905 47.1665 22.5416C45.8332 21.2083 44.0898 20.7083 41.9365 21.0416C39.7832 21.375 37.8043 22.4305 35.9998 24.2083C34.2498 25.9583 33.1871 27.9377 32.8115 30.1466C32.4359 32.3555 32.8876 34.1122 34.1665 35.4166ZM46.9998 54.3333C45.1665 54.3333 43.5971 53.6805 42.2915 52.375C40.9859 51.0694 40.3332 49.5 40.3332 47.6666C40.3332 45.8333 40.9859 44.2639 42.2915 42.9583C43.5971 41.6527 45.1665 41 46.9998 41C48.8332 41 50.4026 41.6527 51.7082 42.9583C53.0137 44.2639 53.6665 45.8333 53.6665 47.6666C53.6665 49.5 53.0137 51.0694 51.7082 52.375C50.4026 53.6805 48.8332 54.3333 46.9998 54.3333Z" fill="#0159CD"/>
</svg>
