<svg width="100" height="100" viewBox="0 0 100 100" fill="none" xmlns="http://www.w3.org/2000/svg">
<rect width="100" height="100" rx="50" fill="#FFECEC"/>
<path fill-rule="evenodd" clip-rule="evenodd" d="M50 46.8C51.8186 46.8 53.5628 46.1257 54.8487 44.9255C56.1347 43.7253 56.8571 42.0974 56.8571 40.4C56.8571 38.7026 56.1347 37.0747 54.8487 35.8745C53.5628 34.6743 51.8186 34 50 34C48.1814 34 46.4372 34.6743 45.1513 35.8745C43.8653 37.0747 43.1429 38.7026 43.1429 40.4C43.1429 42.0974 43.8653 43.7253 45.1513 44.9255C46.4372 46.1257 48.1814 46.8 50 46.8ZM39.8858 66C36.6352 66 33.8993 63.2564 35.2179 60.2853C36.022 58.4735 37.2006 56.8272 38.6863 55.4405C40.172 54.0539 41.9359 52.9539 43.8771 52.2034C45.8183 51.4529 47.8989 51.0667 50 51.0667C52.1012 51.0667 54.1817 51.4529 56.1229 52.2034C58.0641 52.9539 59.828 54.0539 61.3137 55.4405C62.7994 56.8272 63.978 58.4735 64.7821 60.2853C66.1007 63.2564 63.3648 66 60.1142 66H39.8858Z" fill="#DC7000"/>
</svg>
