<svg width="100" height="100" viewBox="0 0 100 100" fill="none" xmlns="http://www.w3.org/2000/svg">
<rect x="-0.000244141" width="100" height="100" rx="50" fill="#FFF8D7"/>
<path fill-rule="evenodd" clip-rule="evenodd" d="M50 47.8181C51.736 47.8181 53.4008 47.1285 54.6284 45.901C55.8559 44.6735 56.5455 43.0086 56.5455 41.2726C56.5455 39.5367 55.8559 37.8718 54.6284 36.6443C53.4008 35.4168 51.736 34.7272 50 34.7272C48.2641 34.7272 46.5992 35.4168 45.3717 36.6443C44.1442 37.8718 43.4546 39.5367 43.4546 41.2726C43.4546 43.0086 44.1442 44.6735 45.3717 45.901C46.5992 47.1285 48.2641 47.8181 50 47.8181ZM40.7248 67.4544C37.4125 67.4544 34.6223 64.67 35.8899 61.6098C36.6574 59.7569 37.7824 58.0732 39.2006 56.655C40.6188 55.2368 42.3024 54.1118 44.1554 53.3443C46.0084 52.5768 47.9944 52.1817 50 52.1817C52.0057 52.1817 53.9917 52.5768 55.8446 53.3443C57.6976 54.1118 59.3813 55.2368 60.7995 56.655C62.2177 58.0732 63.3427 59.7569 64.1102 61.6098C65.3778 64.67 62.5876 67.4544 59.2752 67.4544H40.7248Z" fill="#FFC700"/>
</svg>
