<svg width="100" height="100" viewBox="0 0 100 100" fill="none" xmlns="http://www.w3.org/2000/svg">
<rect width="100" height="100" rx="50" fill="#DCEBFF"/>
<path fill-rule="evenodd" clip-rule="evenodd" d="M50.0003 47.8181C51.7362 47.8181 53.4011 47.1285 54.6286 45.901C55.8561 44.6735 56.5457 43.0086 56.5457 41.2726C56.5457 39.5367 55.8561 37.8718 54.6286 36.6443C53.4011 35.4168 51.7362 34.7272 50.0003 34.7272C48.2643 34.7272 46.5994 35.4168 45.3719 36.6443C44.1444 37.8718 43.4548 39.5367 43.4548 41.2726C43.4548 43.0086 44.1444 44.6735 45.3719 45.901C46.5994 47.1285 48.2643 47.8181 50.0003 47.8181ZM40.7251 67.4544C37.4127 67.4544 34.6225 64.67 35.8901 61.6098C36.6576 59.7569 37.7826 58.0732 39.2008 56.655C40.619 55.2368 42.3027 54.1118 44.1556 53.3443C46.0086 52.5768 47.9946 52.1817 50.0003 52.1817C52.0059 52.1817 53.9919 52.5768 55.8449 53.3443C57.6979 54.1118 59.3815 55.2368 60.7997 56.655C62.2179 58.0732 63.3429 59.7569 64.1104 61.6098C65.378 64.67 62.5878 67.4544 59.2754 67.4544H40.7251Z" fill="#0867E5"/>
</svg>
